<svg xmlns="http://www.w3.org/2000/svg" viewBox="0 0 32 32" width="32" height="32">
  <defs>
    <linearGradient id="grad1" x1="0%" y1="0%" x2="100%" y2="100%">
      <stop offset="0%" style="stop-color:#8B5CF6;stop-opacity:1" />
      <stop offset="50%" style="stop-color:#EC4899;stop-opacity:1" />
      <stop offset="100%" style="stop-color:#F97316;stop-opacity:1" />
    </linearGradient>
  </defs>
  
  <!-- Background circle -->
  <circle cx="16" cy="16" r="15" fill="url(#grad1)" stroke="#1F2937" stroke-width="1"/>
  
  <!-- Buildings/Skyscrapers -->
  <rect x="8" y="12" width="3" height="8" fill="white" opacity="0.9"/>
  <rect x="12" y="8" width="3" height="12" fill="white" opacity="0.9"/>
  <rect x="16" y="10" width="3" height="10" fill="white" opacity="0.9"/>
  <rect x="20" y="6" width="3" height="14" fill="white" opacity="0.9"/>
  
  <!-- Windows on buildings -->
  <rect x="8.5" y="13" width="1" height="1" fill="#1F2937"/>
  <rect x="8.5" y="15" width="1" height="1" fill="#1F2937"/>
  <rect x="8.5" y="17" width="1" height="1" fill="#1F2937"/>
  
  <rect x="12.5" y="9" width="1" height="1" fill="#1F2937"/>
  <rect x="12.5" y="11" width="1" height="1" fill="#1F2937"/>
  <rect x="12.5" y="13" width="1" height="1" fill="#1F2937"/>
  <rect x="12.5" y="15" width="1" height="1" fill="#1F2937"/>
  <rect x="12.5" y="17" width="1" height="1" fill="#1F2937"/>
  
  <rect x="16.5" y="11" width="1" height="1" fill="#1F2937"/>
  <rect x="16.5" y="13" width="1" height="1" fill="#1F2937"/>
  <rect x="16.5" y="15" width="1" height="1" fill="#1F2937"/>
  <rect x="16.5" y="17" width="1" height="1" fill="#1F2937"/>
  
  <rect x="20.5" y="7" width="1" height="1" fill="#1F2937"/>
  <rect x="20.5" y="9" width="1" height="1" fill="#1F2937"/>
  <rect x="20.5" y="11" width="1" height="1" fill="#1F2937"/>
  <rect x="20.5" y="13" width="1" height="1" fill="#1F2937"/>
  <rect x="20.5" y="15" width="1" height="1" fill="#1F2937"/>
  <rect x="20.5" y="17" width="1" height="1" fill="#1F2937"/>
</svg> 