<?xml version="1.0" encoding="utf-8"?>
<!DOCTYPE svg PUBLIC "-//W3C//DTD SVG 20010904//EN" "http://www.w3.org/TR/2001/REC-SVG-20010904/DTD/svg10.dtd">
<svg height="530.000000pt" preserveAspectRatio="xMidYMid meet" version="1.0" viewBox="0 0 1119.000000 530.000000" width="1119.000000pt" xmlns="http://www.w3.org/2000/svg">
<g fill="rgb(146,0,191)" stroke="rgb(146,0,191)" transform="translate(0.000000,530.000000) scale(0.100000,-0.100000)">
<path d="M9170 4032 c-8 -3 -31 -18 -51 -33 -20 -16 -40 -29 -45 -29 -4 0 -14 -7 -23 -15 -24 -23 -119 -85 -130 -85 -6 0 -14 -6 -18 -14 -4 -7 -23 -21 -40 -30 -18 -9 -33 -20 -33 -24 0 -4 -18 -15 -40 -25 -22 -9 -40 -21 -40 -25 0 -5 -16 -16 -35 -25 -19 -9 -35 -20 -35 -25 0 -5 -16 -15 -36 -22 -20 -8 -40 -22 -45 -32 -5 -10 -14 -18 -20 -18 -5 0 -26 -12 -45 -27 l-34 -28 0 -161 c0 -88 -3 -202 -7 -253 l-6 -92 -49 -31 c-26 -17 -48 -34 -48 -37 0 -3 -18 -15 -40 -25 -22 -11 -40 -23 -40 -27 0 -4 -8 -10 -18 -13 -10 -4 -27 -14 -38 -24 -10 -9 -36 -26 -56 -37 -21 -11 -38 -23 -38 -27 0 -4 -12 -14 -27 -23 -38 -21 -71 -43 -138 -90 -32 -22 -69 -47 -84 -56 -17 -10 -28 -27 -31 -50 -4 -19 -6 -247 -5 -507 0 -315 -3 -476 -10 -480 -5 -4 -32 -9 -60 -12 -50 -5 -50 -5 -53 -43 l-3 -37 1093 2 1093 3 0 35 c0 23 -5 35 -15 37 -8 1 -32 4 -52 8 l-38 6 0 267 c0 265 0 268 -22 287 -13 11 -39 28 -58 39 -19 10 -37 22 -40 25 -5 7 -63 49 -91 66 -45 27 -256 172 -273 187 -11 10 -28 20 -38 24 -10 3 -18 9 -18 12 0 6 -33 26 -77 47 -2 1 -6 312 -9 691 -3 379 -9 703 -13 720 -4 21 -11 29 -21 26z m-59 -254 c1 -62 3 -156 5 -208 2 -52 5 -506 7 -1008 2 -637 0 -915 -7 -920 -13 -8 -375 -12 -468 -5 l-68 6 0 946 c0 939 0 947 20 969 12 12 25 22 30 22 5 0 15 6 22 13 7 6 42 31 78 54 36 24 76 52 90 63 14 11 35 23 48 26 12 3 22 10 22 15 0 5 16 17 35 26 19 9 35 20 35 24 0 5 17 16 38 25 20 10 41 24 45 32 8 12 41 30 60 31 4 1 8 -50 8 -111z m-613 -1478 l-3 -664 -180 -2 c-99 -1 -222 1 -272 4 l-93 5 0 488 0 488 30 16 c17 9 30 19 30 23 0 4 18 16 40 26 22 11 40 22 40 26 0 4 14 13 30 20 17 7 34 18 38 24 7 11 236 167 257 175 5 2 23 15 39 28 16 14 33 20 38 15 4 -4 7 -307 6 -672z m755 183 c17 -10 39 -26 49 -35 10 -10 22 -18 27 -18 5 0 16 -6 23 -13 7 -6 33 -26 57 -42 24 -17 54 -37 65 -45 12 -8 37 -24 55 -35 19 -11 42 -28 52 -37 10 -9 32 -24 48 -33 17 -8 31 -19 31 -23 0 -5 16 -14 35 -22 47 -18 50 -37 50 -315 l0 -230 -220 -1 c-121 -1 -244 0 -272 3 l-53 5 0 429 c0 304 3 429 11 429 6 0 25 -8 42 -17z"/>
<path d="M8937 3583 c-4 -3 -7 -409 -7 -900 l0 -894 33 3 32 3 1 820 c1 451 -1 855 -3 898 -5 71 -7 77 -28 77 -12 0 -25 -3 -28 -7z"/>
<path d="M8690 2584 l0 -795 43 3 42 3 1 725 c1 399 -1 755 -3 793 l-6 67 -38 0 -39 0 0 -796z"/>
<path d="M8305 2708 c-3 -7 -4 -215 -3 -463 l3 -450 30 0 30 0 1 445 c1 245 -1 453 -3 463 -5 20 -51 24 -58 5z"/>
<path d="M8065 2438 c-3 -7 -4 -155 -3 -328 l3 -315 43 -3 42 -3 -2 328 -3 328 -38 3 c-24 2 -39 -1 -42 -10z"/>
<path d="M9317 2164 c-4 -4 -7 -90 -7 -191 l0 -184 43 3 42 3 0 185 0 185 -35 3 c-20 2 -39 0 -43 -4z"/>
<path d="M9556 1955 c-9 -24 -7 -138 3 -153 5 -8 17 -12 27 -10 17 3 19 13 19 88 0 79 -1 85 -21 88 -13 2 -24 -4 -28 -13z"/>
<path d="M4797 3263 c-4 -3 -7 -18 -7 -33 0 -33 28 -143 39 -150 4 -3 13 -27 20 -54 7 -28 21 -68 31 -91 10 -22 22 -54 26 -70 4 -17 15 -46 24 -65 10 -19 21 -51 25 -70 4 -19 13 -42 20 -50 7 -8 15 -28 19 -43 4 -15 19 -55 34 -87 20 -44 32 -60 48 -60 25 0 59 44 69 90 4 19 15 49 24 65 9 17 23 53 31 80 7 28 17 52 20 55 4 3 15 30 25 60 9 30 23 64 29 75 7 11 19 41 27 68 7 26 16 47 20 47 4 0 9 9 12 20 6 25 27 26 27 2 0 -10 7 -27 14 -38 8 -12 20 -43 27 -70 6 -27 17 -56 24 -64 7 -8 16 -31 20 -50 4 -19 15 -53 25 -75 10 -22 22 -53 28 -70 6 -16 25 -67 43 -112 29 -78 33 -83 61 -83 24 0 32 6 44 38 8 20 24 56 35 79 10 24 19 49 19 56 0 7 8 28 19 47 10 19 22 51 26 70 4 19 15 51 25 70 9 19 23 59 31 88 7 28 16 52 19 52 4 0 15 30 25 68 10 37 21 72 26 77 4 6 12 31 18 55 10 46 1 80 -22 80 -20 0 -52 -50 -66 -102 -8 -27 -17 -48 -20 -48 -4 0 -15 -27 -25 -61 -11 -33 -27 -77 -36 -97 -10 -21 -21 -53 -25 -72 -4 -19 -13 -42 -20 -50 -7 -8 -15 -28 -19 -45 -8 -35 -48 -124 -57 -125 -7 0 -34 61 -45 100 -3 14 -17 49 -30 78 -13 29 -24 60 -24 70 0 9 -12 40 -25 67 -14 28 -25 56 -25 64 0 8 -11 38 -25 67 -14 30 -28 67 -31 83 -7 36 -45 74 -66 66 -16 -6 -48 -71 -73 -150 -9 -27 -22 -61 -29 -75 -7 -14 -16 -40 -20 -59 -3 -19 -14 -52 -25 -75 -22 -48 -58 -136 -76 -186 -17 -46 -35 -44 -52 5 -7 22 -22 59 -33 82 -11 24 -20 48 -20 55 0 6 -9 30 -19 52 -10 23 -27 64 -36 91 -50 141 -63 175 -72 187 -5 7 -15 28 -23 46 -12 30 -37 42 -53 25z"/>
<path d="M1105 3244 c-78 -17 -115 -31 -115 -44 0 -5 -7 -10 -14 -10 -23 0 -100 -80 -129 -133 -82 -150 -49 -354 76 -466 42 -39 57 -51 62 -51 2 0 30 -12 62 -27 47 -21 73 -26 138 -27 70 0 92 5 172 37 l93 37 36 -35 c24 -24 45 -35 65 -35 35 0 50 27 26 45 -10 7 -17 17 -17 22 0 5 -11 19 -25 31 -28 25 -33 63 -10 86 20 19 30 48 45 127 22 123 -21 256 -112 346 -18 18 -36 33 -40 33 -4 0 -15 9 -25 20 -12 12 -53 27 -106 40 -98 22 -99 22 -182 4z m193 -87 c9 -8 26 -17 38 -21 31 -10 105 -85 121 -125 8 -20 20 -39 25 -42 14 -9 16 -188 2 -197 -6 -4 -17 -24 -23 -44 -7 -21 -16 -38 -20 -38 -4 0 -35 27 -69 60 -65 63 -108 88 -125 71 -18 -18 3 -62 52 -110 86 -84 85 -96 -2 -125 -81 -27 -228 -15 -250 21 -4 7 -13 13 -20 13 -16 0 -87 71 -87 87 0 7 -4 13 -10 13 -15 0 -40 98 -40 155 0 57 20 134 41 160 63 76 112 112 184 135 44 14 162 6 183 -13z"/>
<path d="M3803 3242 c-26 -7 -58 -16 -71 -19 -31 -7 -168 -142 -177 -173 -4 -14 -14 -36 -23 -50 -20 -30 -24 -199 -5 -221 6 -8 14 -28 17 -45 9 -39 64 -117 113 -159 21 -17 65 -44 98 -60 52 -25 72 -28 150 -28 61 0 101 5 125 15 19 9 45 19 58 23 37 11 105 79 100 101 -2 10 -11 20 -20 22 -17 3 -109 -34 -118 -49 -8 -12 -89 -28 -143 -29 -61 0 -140 19 -150 37 -4 7 -14 13 -20 13 -25 0 -89 78 -123 150 -24 51 -15 198 15 236 11 15 21 31 21 37 0 17 62 71 115 101 45 26 60 29 140 29 83 0 95 -3 148 -33 31 -17 60 -36 63 -41 3 -5 21 -9 40 -9 28 0 34 4 34 22 0 24 -46 78 -67 78 -7 0 -13 4 -13 9 0 35 -222 66 -307 43z"/>
<path d="M6919 3244 c-22 -26 -21 -741 1 -754 22 -14 30 -12 37 8 4 9 11 20 16 23 5 4 11 36 14 73 3 36 8 66 10 66 3 0 23 -18 46 -40 109 -104 143 -130 170 -130 22 0 27 4 27 24 0 16 -28 51 -95 117 -52 52 -95 97 -95 100 0 4 36 44 81 90 111 115 109 113 109 137 0 15 -6 22 -19 22 -38 0 -68 -19 -140 -89 -40 -39 -76 -71 -80 -71 -8 0 -21 192 -21 319 0 78 -3 87 -31 109 -13 10 -19 9 -30 -4z"/>
<path d="M3080 3231 c-14 -26 -13 -697 1 -723 11 -21 44 -24 56 -5 4 6 10 44 13 82 3 45 9 70 17 70 7 0 44 -30 82 -67 38 -38 73 -68 76 -68 4 0 15 -10 24 -22 14 -16 24 -19 44 -14 51 12 33 47 -88 170 -89 90 -89 76 7 169 47 45 90 92 96 104 15 28 6 53 -20 53 -18 0 -108 -64 -116 -82 -8 -17 -105 -87 -113 -82 -5 3 -9 89 -10 192 -1 103 -4 198 -8 212 -9 32 -46 39 -61 11z"/>
<path d="M2310 3172 c-43 -15 -53 -72 -16 -92 30 -16 54 -8 65 22 15 42 -13 83 -49 70z"/>
<path d="M1735 2964 c-18 -14 -20 -27 -20 -159 0 -100 4 -148 13 -157 7 -7 12 -20 12 -30 0 -36 25 -69 74 -99 44 -28 56 -31 111 -27 40 2 68 10 79 20 9 9 24 19 34 22 9 3 28 23 42 43 25 36 25 40 23 211 -2 181 -8 206 -41 186 -14 -9 -18 -33 -23 -135 -7 -137 -17 -191 -43 -231 -33 -50 -131 -45 -170 9 -17 22 -20 49 -24 182 -3 127 -7 158 -20 169 -20 15 -22 15 -47 -4z"/>
<path d="M2294 2969 c-9 -15 -8 -440 1 -468 7 -23 21 -26 45 -11 13 8 15 44 13 237 -1 204 -3 228 -19 240 -22 16 -31 16 -40 2z"/>
<path d="M2683 2973 c-12 -2 -27 -11 -33 -19 -7 -8 -18 -14 -24 -14 -21 0 -76 -62 -98 -109 -16 -36 -19 -59 -16 -117 3 -49 10 -78 21 -89 10 -9 17 -21 17 -27 0 -17 47 -56 101 -84 58 -31 176 -38 207 -12 9 7 30 20 45 28 33 16 49 42 41 64 -10 26 -37 27 -88 1 -141 -72 -290 29 -257 174 11 50 68 110 115 121 40 9 115 -3 159 -25 17 -8 34 -15 38 -15 12 0 39 30 39 45 0 14 -56 52 -105 72 -29 11 -117 15 -162 6z"/>
<path d="M4468 2968 c-16 -5 -28 -14 -28 -19 0 -5 -6 -9 -13 -9 -21 0 -73 -61 -96 -112 -28 -63 -27 -127 4 -191 46 -99 125 -150 235 -151 47 0 75 5 87 15 10 8 30 21 46 29 34 17 76 71 93 119 46 128 -30 286 -153 320 -47 13 -139 13 -175 -1z m169 -89 c62 -20 104 -113 83 -188 -20 -75 -81 -121 -160 -121 -145 0 -217 173 -116 277 49 51 102 60 193 32z"/>
<path d="M6045 2973 c-27 -7 -105 -56 -105 -66 0 -5 -8 -16 -19 -25 -39 -36 -69 -171 -44 -204 5 -7 15 -31 22 -52 14 -42 58 -90 90 -101 12 -3 21 -10 21 -15 0 -12 57 -23 122 -22 93 1 188 67 216 151 25 72 5 241 -27 241 -6 0 -13 9 -16 21 -4 11 -20 25 -36 31 -16 5 -29 14 -29 18 0 23 -131 38 -195 23z m164 -99 c40 -23 81 -97 81 -144 0 -47 -47 -123 -90 -145 -33 -17 -89 -19 -141 -5 -53 15 -100 84 -101 148 0 67 40 133 96 155 48 19 114 15 155 -9z"/>
<path d="M6505 2972 c-7 -7 -6 -413 1 -450 8 -40 42 -50 67 -21 14 18 17 43 18 143 1 116 10 231 19 239 3 2 19 7 37 10 25 5 39 1 62 -18 36 -31 67 -32 76 -4 9 28 -39 96 -73 103 -32 7 -200 5 -207 -2z"/>
<path d="M7960 1428 c0 -7 -3 -23 -6 -35 l-6 -23 896 0 896 0 0 35 0 35 -890 0 c-705 0 -890 -3 -890 -12z"/>
</g>
</svg>